<?xml version="1.0" encoding="utf-8"?>
<!-- Generator: Adobe Illustrator 19.0.0, SVG Export Plug-In . SVG Version: 6.00 Build 0)  -->
<svg version="1.1" id="Layer_1" xmlns="http://www.w3.org/2000/svg" xmlns:xlink="http://www.w3.org/1999/xlink" x="0px" y="0px"
	 viewBox="-38 129.5 534.5 534.5" style="enable-background:new -38 129.5 534.5 534.5;" xml:space="preserve">
<style type="text/css">
	.st0{fill:#FCE274;}
	.st1{fill:#FFFFFF;}
</style>
<g id="XMLID_54_">
</g>
<g id="XMLID_55_">
</g>
<g id="XMLID_56_">
</g>
<g id="XMLID_57_">
</g>
<g id="XMLID_58_">
</g>
<g>
	<circle class="st0" cx="229.3" cy="396.8" r="267.3"/>
	<g>
		<path d="M428.1,282.5c-6.1-2.5-12.5-5-19-6.5c-15.5-3.7-30.3-9.1-44.2-16.9c-4.1-2.3-8.5-4.1-12.9-5.9
			c-16.5-6.9-28.5-4.6-40.6,8.5c-4.7,5-8.5,11-12.3,16.7c-1.6,2.4-3,3-5.9,2.4c-9.2-1.8-18.6-3.7-27.9-4.8
			c-6.7-0.8-33.6-0.8-33.5-0.7c-16.8,0.1-33.4,1.8-49.5,6.7c-6.9,2-11.4,0.4-16.3-4.7c-11.4-12-23.2-23.5-35.3-34.7
			c-9.4-8.7-19.6-16.4-31.8-20.9c-7.9-2.9-13.1-1-17,6.4c-4.2,8.1-5.4,16.9-5.5,25.9c-0.4,20.5,3.2,40.5,9.1,60.1
			c1.6,5.5,4.3,10.8,3,16.7c-2.2,10.2-0.3,19.6,5,28.5c2.7,4.6,2.6,9.2,0.4,14.1c-3.6,8.4-7,16.8-10.2,25.4
			c-7.9,21.4-10.3,43.4-6.5,65.9c1.5,8.9,4.3,17.6,6.5,26.9c-10,3.1-20.7,5.9-30.1,11.9c1.2,0.1,2.3-0.1,3.4-0.3
			c8.8-2.2,17.5-4.4,26.3-6.5c1.2-0.3,3.4,0.1,3.9,0.9c2.6,4.2,4.9,8.6,7.4,13.1c-10.6,4.2-20.9,9.1-29.4,16.9
			c1.1-0.1,2.1-0.5,3.1-0.9c8.8-3.7,17.6-7.4,26.4-11.2c2-0.9,3.2-0.7,4.7,1.2c3.2,4,6.7,7.6,10,11c0.8,0.9,1.5,1.8,2.4,2.8
			c-10.3,6.7-19.5,14.2-26.7,23.8c2-0.9,3.6-2,5.4-3.2c7.4-5.2,14.8-10.2,22.1-15.5c2.2-1.6,3.7-1.3,5.7,0.4
			c10.4,9,22.2,15.9,35.3,20.2c8.6,2.8,17.4,4.9,26,7.3c15.9,4.5,31.9,8.5,48.5,9.4c18.6,1.1,35.7-2.6,50.7-14.1
			c2.3-1.8,4.5-2.4,7.3-2.2c16.6,1.2,28.9-5.9,37.5-19.9c1.7-2.8,3.6-5.5,5.2-8.5c1.4-2.4,2.9-2.9,5.6-1.8
			c12.4,5.2,23.8,11.8,34.9,19.2c1.6,1.1,3.2,2,4.8,3.1c0.2-0.3,0.3-0.5,0.5-0.7c-5.3-6.3-11.8-11.4-18.8-15.6
			c-7-4.2-14.4-7.9-21.9-11.9c2.9-3.1,6-6.2,8.9-9.5c1.8-2.1,3.8-2.6,6.3-1.7c10,3.6,20.1,7.1,30.2,10.6c1.8,0.6,3.5,1.4,5.2,2
			c0.1-0.3,0.2-0.6,0.3-0.9c-10.5-7.9-22.5-12.7-35.3-16.7c3.2-4,6.3-7.4,8.9-11.2c1.7-2.2,3.4-2.7,5.9-2.2
			c6.9,1.5,13.8,2.7,20.7,4.1c3.9,0.8,7.8,1.7,11.7,2.4c-10.2-6-21.3-9.2-32.8-11.5c2.1-4.8,4.4-9.1,6.1-13.7
			c4.8-13,5.3-26.7,5.4-40.4c0-7.9,0.8-15.8,1-23.7c0-1.9-0.2-4.2-1.1-5.8c-9.3-15.9-14.4-33.2-17.1-51.3c-2.2-14.9-4.2-29.9-7-44.7
			c-2.2-10.9-6.1-21.3-14.7-29.3c-0.1-0.1,0-0.4,0.1-0.8c3.2-0.7,5.9,0.5,7.9,2.8c2.6,3.1,5.2,6.4,7.1,9.9
			c6.6,12.1,9.4,25.2,11.6,38.7c2.2,13.9,4.2,27.9,7.4,41.6c4.1,17.4,12.3,33,25.6,45.4c3.2,3,7.5,5.4,11.8,6.9
			c6.1,2.2,11-1.3,12-7.7c0.4-3,0.3-6.1,0.1-9.2c-0.7-12.2,1.8-23.6,8.3-34.1c3.7-6,7.1-12.2,10.3-18.4
			c6.1-11.6,10.4-23.8,10.4-37.1C448.8,300,442.6,288.5,428.1,282.5z"/>
		<g>
			<g>
				<circle class="st1" cx="174.9" cy="397" r="20.8"/>
				<circle class="st1" cx="282" cy="397" r="20.8"/>
			</g>
			<polygon class="st1" points="254.9,456.9 228.4,483.3 202,456.9 			"/>
		</g>
	</g>
</g>
</svg>
